<svg width="56" height="52" viewBox="0 0 56 52" fill="none" xmlns="http://www.w3.org/2000/svg">
<rect width="56" height="52" rx="6" fill="#5234C0"/>
<path d="M32 35V33C32 31.9391 31.5786 30.9217 30.8284 30.1716C30.0783 29.4214 29.0609 29 28 29H22C20.9391 29 19.9217 29.4214 19.1716 30.1716C18.4214 30.9217 18 31.9391 18 33V35" stroke="white" stroke-width="2" stroke-linecap="round" stroke-linejoin="round"/>
<path d="M25 25C27.2091 25 29 23.2091 29 21C29 18.7909 27.2091 17 25 17C22.7909 17 21 18.7909 21 21C21 23.2091 22.7909 25 25 25Z" stroke="white" stroke-width="2" stroke-linecap="round" stroke-linejoin="round"/>
<path d="M38 34.9999V32.9999C37.9993 32.1136 37.7044 31.2527 37.1614 30.5522C36.6184 29.8517 35.8581 29.3515 35 29.1299" stroke="white" stroke-width="2" stroke-linecap="round" stroke-linejoin="round"/>
<path d="M32 17.1299C32.8604 17.3502 33.623 17.8506 34.1676 18.5522C34.7122 19.2538 35.0078 20.1167 35.0078 21.0049C35.0078 21.8931 34.7122 22.756 34.1676 23.4576C33.623 24.1592 32.8604 24.6596 32 24.8799" stroke="white" stroke-width="2" stroke-linecap="round" stroke-linejoin="round"/>
</svg>
