<svg width="88" height="22" viewBox="0 0 88 22" fill="none" xmlns="http://www.w3.org/2000/svg">
<path d="M9.07024 4.67212H4.14866C3.77572 4.67212 3.41806 4.82027 3.15435 5.08398C2.89064 5.34768 2.74249 5.70535 2.74249 6.07829V15.9215C2.74249 16.2944 2.89064 16.6521 3.15435 16.9158C3.41806 17.1795 3.77572 17.3276 4.14866 17.3276H13.9918C14.3648 17.3276 14.7224 17.1795 14.9861 16.9158C15.2498 16.6521 15.398 16.2944 15.398 15.9215V10.9999" stroke="#5234C0" stroke-width="1.58194" stroke-linecap="round" stroke-linejoin="round"/>
<path d="M13.5524 4.40852C13.8321 4.12882 14.2114 3.97168 14.607 3.97168C15.0026 3.97168 15.3819 4.12882 15.6616 4.40852C15.9413 4.68822 16.0985 5.06758 16.0985 5.46315C16.0985 5.85871 15.9413 6.23807 15.6616 6.51777L9.32473 12.8554C9.15778 13.0222 8.95154 13.1443 8.725 13.2104L6.70504 13.801C6.64454 13.8187 6.58041 13.8197 6.51936 13.8041C6.45831 13.7884 6.40259 13.7567 6.35803 13.7121C6.31347 13.6676 6.2817 13.6118 6.26606 13.5508C6.25042 13.4897 6.25148 13.4256 6.26913 13.3651L6.85972 11.3451C6.92618 11.1188 7.04852 10.9128 7.21548 10.7461L13.5524 4.40852Z" stroke="#5234C0" stroke-width="1.58194" stroke-linecap="round" stroke-linejoin="round"/>
<path d="M22.9055 16V5.262H29.6377V6.65668H24.5256V9.92841H29.2864V11.3179H24.5256V14.6053H29.7006V16H22.9055ZM34.6908 16.1573C34.0407 16.1573 33.4604 15.9913 32.9501 15.6592C32.4432 15.3236 32.0448 14.8465 31.7546 14.2278C31.468 13.6056 31.3247 12.8593 31.3247 11.989C31.3247 11.1186 31.4698 10.3741 31.7599 9.75539C32.0535 9.1367 32.4555 8.66306 32.9658 8.33449C33.4761 8.00592 34.0546 7.84163 34.7013 7.84163C35.2011 7.84163 35.6031 7.92552 35.9072 8.09331C36.2148 8.25759 36.4525 8.44984 36.6203 8.67005C36.7916 8.89027 36.9244 9.08426 37.0188 9.25205H37.1131V5.262H38.6809V16H37.1499V14.7469H37.0188C36.9244 14.9182 36.7881 15.1139 36.6098 15.3341C36.435 15.5543 36.1938 15.7466 35.8862 15.9109C35.5786 16.0752 35.1802 16.1573 34.6908 16.1573ZM35.0369 14.8203C35.4878 14.8203 35.8688 14.7014 36.1799 14.4638C36.4945 14.2226 36.7321 13.8888 36.8929 13.4623C37.0572 13.0359 37.1394 12.5395 37.1394 11.9732C37.1394 11.414 37.059 10.9246 36.8982 10.5052C36.7374 10.0857 36.5014 9.75888 36.1904 9.52469C35.8793 9.2905 35.4948 9.1734 35.0369 9.1734C34.565 9.1734 34.1717 9.29574 33.8571 9.54042C33.5426 9.7851 33.3049 10.1189 33.1441 10.5419C32.9868 10.9648 32.9081 11.4419 32.9081 11.9732C32.9081 12.5115 32.9885 12.9957 33.1493 13.4256C33.3101 13.8555 33.5478 14.1964 33.8624 14.448C34.1805 14.6962 34.572 14.8203 35.0369 14.8203ZM40.9184 16V7.9465H42.4861V16H40.9184ZM41.7101 6.70387C41.4375 6.70387 41.2033 6.61298 41.0075 6.43122C40.8153 6.24596 40.7191 6.02575 40.7191 5.77058C40.7191 5.51192 40.8153 5.29171 41.0075 5.10994C41.2033 4.92469 41.4375 4.83206 41.7101 4.83206C41.9827 4.83206 42.2152 4.92469 42.4074 5.10994C42.6032 5.29171 42.7011 5.51192 42.7011 5.77058C42.7011 6.02575 42.6032 6.24596 42.4074 6.43122C42.2152 6.61298 41.9827 6.70387 41.7101 6.70387ZM48.3545 7.9465V9.20486H43.9555V7.9465H48.3545ZM45.1352 6.01701H46.7029V13.6353C46.7029 13.9394 46.7483 14.1684 46.8392 14.3222C46.9301 14.4725 47.0472 14.5756 47.1905 14.6315C47.3373 14.684 47.4964 14.7102 47.6676 14.7102C47.7935 14.7102 47.9036 14.7014 47.998 14.684C48.0923 14.6665 48.1657 14.6525 48.2182 14.642L48.5013 15.9371C48.4104 15.972 48.2811 16.007 48.1133 16.0419C47.9455 16.0804 47.7358 16.1014 47.4841 16.1049C47.0717 16.1119 46.6872 16.0384 46.3306 15.8847C45.9741 15.7309 45.6857 15.4932 45.4655 15.1716C45.2453 14.85 45.1352 14.4463 45.1352 13.9604V6.01701ZM52.4324 16.1783C51.922 16.1783 51.4606 16.0839 51.0482 15.8951C50.6357 15.7029 50.3089 15.425 50.0677 15.0615C49.83 14.6979 49.7112 14.2523 49.7112 13.7245C49.7112 13.2701 49.7986 12.896 49.9733 12.6024C50.1481 12.3088 50.384 12.0764 50.6812 11.9051C50.9783 11.7338 51.3103 11.6045 51.6774 11.5171C52.0444 11.4297 52.4184 11.3633 52.7994 11.3179C53.2818 11.2619 53.6733 11.2165 53.9739 11.1815C54.2745 11.1431 54.4929 11.0819 54.6293 10.998C54.7656 10.9141 54.8337 10.7778 54.8337 10.5891V10.5524C54.8337 10.0944 54.7044 9.73966 54.4457 9.48799C54.1906 9.23632 53.8096 9.11048 53.3027 9.11048C52.7749 9.11048 52.359 9.22758 52.0549 9.46177C51.7543 9.69247 51.5463 9.94939 51.4309 10.2325L49.9576 9.89695C50.1324 9.40759 50.3875 9.01261 50.7231 8.712C51.0622 8.4079 51.4519 8.18768 51.8923 8.05136C52.3327 7.91154 52.7959 7.84163 53.2818 7.84163C53.6033 7.84163 53.9441 7.88008 54.3042 7.95698C54.6677 8.03039 55.0068 8.16671 55.3214 8.36595C55.6394 8.56519 55.8998 8.85007 56.1026 9.22059C56.3053 9.58761 56.4067 10.0647 56.4067 10.652V16H54.8757V14.8989H54.8128C54.7114 15.1017 54.5593 15.3009 54.3566 15.4967C54.1539 15.6924 53.8935 15.8549 53.5754 15.9843C53.2573 16.1136 52.8763 16.1783 52.4324 16.1783ZM52.7732 14.9199C53.2066 14.9199 53.5771 14.8343 53.8847 14.663C54.1958 14.4917 54.4318 14.268 54.5926 13.9919C54.7568 13.7122 54.839 13.4134 54.839 13.0953V12.0571C54.7831 12.1131 54.6747 12.1655 54.5139 12.2144C54.3566 12.2599 54.1766 12.3001 53.9739 12.335C53.7711 12.3665 53.5736 12.3962 53.3814 12.4242C53.1891 12.4486 53.0283 12.4696 52.899 12.4871C52.5949 12.5255 52.317 12.5902 52.0653 12.6811C51.8172 12.772 51.6179 12.903 51.4676 13.0743C51.3208 13.2421 51.2474 13.4658 51.2474 13.7454C51.2474 14.1334 51.3907 14.4271 51.6774 14.6263C51.964 14.822 52.3293 14.9199 52.7732 14.9199ZM58.4948 16V7.9465H60.0101V9.22583H60.0939C60.2408 8.79239 60.4994 8.45159 60.8699 8.20341C61.2439 7.95174 61.6669 7.8259 62.1388 7.8259C62.2367 7.8259 62.352 7.8294 62.4848 7.83639C62.6212 7.84338 62.7278 7.85212 62.8047 7.86261V9.36215C62.7417 9.34467 62.6299 9.32545 62.4691 9.30448C62.3083 9.28001 62.1475 9.26777 61.9867 9.26777C61.6162 9.26777 61.2859 9.34642 60.9958 9.50372C60.7091 9.65752 60.4819 9.87249 60.3142 10.1486C60.1464 10.4213 60.0625 10.7324 60.0625 11.0819V16H58.4948Z" fill="#5234C0"/>
<path d="M73.0672 6.86255H85.4797" stroke="#F87171" stroke-width="1.37917" stroke-linecap="round" stroke-linejoin="round"/>
<path d="M84.1006 6.86255V16.5167C84.1006 17.2063 83.411 17.8959 82.7214 17.8959H75.8256C75.136 17.8959 74.4464 17.2063 74.4464 16.5167V6.86255" stroke="#F87171" stroke-width="1.37917" stroke-linecap="round" stroke-linejoin="round"/>
<path d="M76.5151 6.86258V5.48341C76.5151 4.79383 77.2047 4.10425 77.8943 4.10425H80.6526C81.3422 4.10425 82.0318 4.79383 82.0318 5.48341V6.86258" stroke="#F87171" stroke-width="1.37917" stroke-linecap="round" stroke-linejoin="round"/>
</svg>
