<svg width="73" height="26" viewBox="0 0 73 26" fill="none" xmlns="http://www.w3.org/2000/svg">
<rect x="0.27124" y="0.590088" width="72.3667" height="24.82" rx="10.3417" fill="#D1FAE5"/>
<path d="M12.7422 17.5H11.2967L14.5446 8.47455H16.1179L19.3659 17.5H17.9204L15.3687 10.1139H15.2982L12.7422 17.5ZM12.9846 13.9656H17.6736V15.1114H12.9846V13.9656ZM23.2991 10.7309V11.7886H19.6016V10.7309H23.2991ZM20.5932 9.10915H21.9109V15.5125C21.9109 15.7681 21.9491 15.9605 22.0255 16.0898C22.1018 16.2161 22.2003 16.3028 22.3207 16.3498C22.4441 16.3939 22.5778 16.4159 22.7218 16.4159C22.8275 16.4159 22.9201 16.4085 22.9994 16.3939C23.0787 16.3792 23.1404 16.3674 23.1845 16.3586L23.4225 17.4471C23.3461 17.4765 23.2374 17.5059 23.0964 17.5353C22.9553 17.5676 22.7791 17.5852 22.5675 17.5881C22.2208 17.594 21.8977 17.5323 21.598 17.403C21.2983 17.2738 21.0559 17.074 20.8708 16.8037C20.6857 16.5334 20.5932 16.1941 20.5932 15.7857V9.10915ZM24.7567 17.5V10.7309H26.0744V17.5H24.7567ZM25.4221 9.68646C25.193 9.68646 24.9961 9.61007 24.8316 9.4573C24.67 9.30158 24.5892 9.11649 24.5892 8.90202C24.5892 8.68461 24.67 8.49952 24.8316 8.34674C24.9961 8.19103 25.193 8.11317 25.4221 8.11317C25.6513 8.11317 25.8467 8.19103 26.0083 8.34674C26.1728 8.49952 26.255 8.68461 26.255 8.90202C26.255 9.11649 26.1728 9.30158 26.0083 9.4573C25.8467 9.61007 25.6513 9.68646 25.4221 9.68646ZM33.6378 10.7309L31.1831 17.5H29.7729L27.3138 10.7309H28.7284L30.4428 15.9399H30.5133L32.2232 10.7309H33.6378ZM37.4972 17.6366C36.8626 17.6366 36.3088 17.4912 35.8358 17.2003C35.3628 16.9095 34.9955 16.5026 34.734 15.9796C34.4726 15.4566 34.3418 14.8455 34.3418 14.1463C34.3418 13.4441 34.4726 12.8301 34.734 12.3042C34.9955 11.7783 35.3628 11.3699 35.8358 11.0791C36.3088 10.7882 36.8626 10.6428 37.4972 10.6428C38.1318 10.6428 38.6856 10.7882 39.1586 11.0791C39.6316 11.3699 39.9989 11.7783 40.2604 12.3042C40.5218 12.8301 40.6526 13.4441 40.6526 14.1463C40.6526 14.8455 40.5218 15.4566 40.2604 15.9796C39.9989 16.5026 39.6316 16.9095 39.1586 17.2003C38.6856 17.4912 38.1318 17.6366 37.4972 17.6366ZM37.5016 16.5305C37.9129 16.5305 38.2537 16.4218 38.524 16.2044C38.7943 15.9869 38.9941 15.6976 39.1234 15.3362C39.2556 14.9748 39.3217 14.5767 39.3217 14.1419C39.3217 13.71 39.2556 13.3134 39.1234 12.952C38.9941 12.5877 38.7943 12.2954 38.524 12.075C38.2537 11.8547 37.9129 11.7445 37.5016 11.7445C37.0873 11.7445 36.7436 11.8547 36.4704 12.075C36.2001 12.2954 35.9988 12.5877 35.8666 12.952C35.7373 13.3134 35.6727 13.71 35.6727 14.1419C35.6727 14.5767 35.7373 14.9748 35.8666 15.3362C35.9988 15.6976 36.2001 15.9869 36.4704 16.2044C36.7436 16.4218 37.0873 16.5305 37.5016 16.5305Z" fill="#065F46"/>
<path fill-rule="evenodd" clip-rule="evenodd" d="M56.8225 10.2006C56.4187 9.79674 55.7639 9.79674 55.36 10.2006L51.9546 13.606L48.5492 10.2006C48.1453 9.79674 47.4905 9.79674 47.0867 10.2006C46.6828 10.6045 46.6828 11.2593 47.0867 11.6631L51.2233 15.7998C51.6272 16.2037 52.282 16.2037 52.6859 15.7998L56.8225 11.6631C57.2264 11.2593 57.2264 10.6045 56.8225 10.2006Z" fill="#065F46"/>
</svg>
